<?xml version="1.0" encoding="utf-8"?>
<!-- Generator: Adobe Illustrator 25.3.1, SVG Export Plug-In . SVG Version: 6.00 Build 0)  -->
<svg version="1.1" id="Layer_1" xmlns="http://www.w3.org/2000/svg" xmlns:xlink="http://www.w3.org/1999/xlink" x="0px" y="0px"
	 viewBox="0 0 876.42 568.72"  xml:space="preserve">
<style type="text/css">
	.st0{fill:#0F0F0F;}
	.st1{fill:#AA8E5D;}
</style>
<g>
	<path class="st1" d="M572.7,409.53c-50.85-22.34-78.93-34.51-116.64-72.22l0,0l0,0l-4.84-4.84l4.84-4.84h0
		c37.71-37.71,65.79-49.88,116.64-72.22c18.23-8.01,34.67-19.02,48.81-33.15c31.28-31.28,47.28-73.88,49.28-122.2
		c-48.32,2-90.92,18-122.2,49.28c-14.13,14.13-25.14,30.57-33.16,48.81c-22.34,50.85-34.51,78.93-72.22,116.64l0,0l-4.84,4.84
		l-4.84-4.84c-37.71-37.71-49.88-65.79-72.22-116.64c-8.01-18.23-19.02-34.67-33.15-48.81c-31.28-31.28-73.88-47.28-122.2-49.28
		c2,48.32,18,90.92,49.28,122.2c14.13,14.13,30.57,25.14,48.81,33.16c50.85,22.34,78.93,34.51,116.64,72.22l4.84,4.84l-4.84,4.84
		l0,0c-37.71,37.71-65.79,49.88-116.64,72.22c-18.23,8.01-34.68,19.02-48.81,33.16c-31.28,31.28-47.28,73.88-49.28,122.2
		c48.32-2,90.92-18,122.2-49.28c14.13-14.13,25.14-30.57,33.15-48.81c22.34-50.85,34.51-78.93,72.22-116.64v0l4.84-4.84l4.84,4.84
		c37.71,37.71,49.88,65.79,72.22,116.64c8.01,18.23,19.02,34.68,33.16,48.81c31.28,31.28,73.88,47.28,122.2,49.28
		c-2-48.32-18-90.92-49.28-122.2C607.37,428.55,590.93,417.54,572.7,409.53z M523.35,203.04l0.52-1.18
		c7.68-17.47,18.19-32.95,31.23-46c26.44-26.44,62.87-42.21,105.81-45.93c-3.72,42.95-19.49,79.37-45.93,105.81
		c-13.05,13.05-28.52,23.56-45.99,31.23l-1.19,0.52c-30.7,13.49-53.88,23.67-76.23,38.62c36.56-36.82,69.15-71.91,94.83-101.66
		c-29.76,25.68-64.84,58.27-101.66,94.83C499.68,256.92,509.86,233.74,523.35,203.04z M385.18,286.11
		c-22.35-14.94-45.53-25.13-76.24-38.62l-1.18-0.52c-17.47-7.68-32.95-18.19-46-31.23c-26.44-26.44-42.21-62.87-45.93-105.81
		c42.95,3.72,79.37,19.49,105.81,45.93c13.05,13.05,23.56,28.52,31.23,46l0.52,1.19c13.49,30.7,23.67,53.88,38.62,76.23
		c-36.82-36.56-71.91-69.15-101.66-94.83C316.03,214.2,348.62,249.29,385.18,286.11z M353.4,461.9l-0.52,1.19
		c-7.68,17.47-18.18,32.95-31.23,46c-26.44,26.44-62.87,42.21-105.81,45.93c3.72-42.95,19.49-79.37,45.93-105.81
		c13.05-13.05,28.52-23.56,46-31.23l1.18-0.52c30.7-13.49,53.88-23.67,76.24-38.62c-36.56,36.82-69.15,71.91-94.83,101.66
		c29.76-25.68,64.84-58.27,101.66-94.83C377.07,408.02,366.89,431.2,353.4,461.9z M438.37,345.32l-12.85-12.85l12.85-12.85
		l12.85,12.85L438.37,345.32z M555.11,509.08c-13.05-13.05-23.56-28.52-31.23-46l-0.52-1.18c-13.49-30.71-23.67-53.88-38.62-76.24
		c36.82,36.56,71.91,69.15,101.66,94.83c-25.68-29.76-58.27-64.84-94.83-101.66c22.35,14.94,45.53,25.13,76.23,38.62l1.19,0.52
		c17.47,7.68,32.95,18.18,45.99,31.23c26.44,26.44,42.21,62.87,45.93,105.81C617.97,551.3,581.55,535.52,555.11,509.08z"/>
</g>
</svg>
