<?xml version="1.0" encoding="utf-8"?>
<!-- Generator: Adobe Illustrator 25.3.1, SVG Export Plug-In . SVG Version: 6.00 Build 0)  -->
<svg version="1.1" id="Layer_1" xmlns="http://www.w3.org/2000/svg" xmlns:xlink="http://www.w3.org/1999/xlink" x="0px" y="0px"
	 viewBox="0 0 876.42 898.72" style="enable-background:new 0 0 876.42 898.72;" xml:space="preserve">
<style type="text/css">
	.st0{fill:#0F0F0F;}
	.st1{fill:#AA8E5D;}
</style>
<g>
	<g>
		<path class="st0" d="M158.73,665.21h7.06v26.76h32.43v-26.76h7.06v61.02h-7.06v-27.81h-32.43v27.81h-7.06V665.21z"/>
		<path class="st0" d="M261.93,711.76h-29.81l-5.32,14.47h-7.41l22.75-61.02h10.02l22.49,61.02h-7.41L261.93,711.76z M259.58,705.31
			l-12.29-33.65h-0.52l-12.29,33.65H259.58z"/>
		<path class="st0" d="M287.9,720.13h9.07v-48.82h-9.07v-6.1h25.19v6.1h-9.07v48.82h9.07v6.1H287.9V720.13z"/>
		<path class="st0" d="M333.3,665.21h19.35c12.47,0,19.88,7.15,19.88,17.78c0,9.06-4.97,16.21-14.47,17.96l16.39,25.28h-8.54
			l-15.25-24.67h-10.29v24.67h-7.06V665.21z M352.65,695.28c7.15,0,12.55-4.18,12.55-12.2c0-6.45-4.36-11.59-12.99-11.59h-11.86
			v23.8H352.65z"/>
		<path class="st1" d="M454.28,725.66l-4.27-5.75c-4.53,4.36-10.64,6.89-18.04,6.89c-13.25,0-21.18-9.59-21.18-19.61
			c0-8.63,5.23-16.04,15.34-19.61l-10.37-14.04v-8.89h34.35v6.45h-27.9v0.52l27.63,37.14c1.57-3.58,2.35-7.76,2.35-12.2h6.62
			c0,6.8-1.57,13.08-4.62,18.04l8.28,11.07H454.28z M446.09,714.59l-15.87-21.53c-8.98,2.01-12.55,8.37-12.55,13.77
			c0,7.67,6.54,13.69,14.3,13.69C437.98,720.52,442.69,718.25,446.09,714.59z"/>
		<path class="st0" d="M502.3,665.21h7.06v26.76h32.43v-26.76h7.06v61.02h-7.06v-27.81h-32.43v27.81h-7.06V665.21z"/>
		<path class="st0" d="M605.5,711.76h-29.81l-5.32,14.47h-7.41l22.75-61.02h10.02l22.49,61.02h-7.41L605.5,711.76z M603.15,705.31
			l-12.29-33.65h-0.52l-12.29,33.65H603.15z"/>
		<path class="st0" d="M631.47,720.13h9.07v-48.82h-9.07v-6.1h25.19v6.1h-9.07v48.82h9.07v6.1h-25.19V720.13z"/>
		<path class="st0" d="M676.87,665.21h19.35c12.47,0,19.88,7.15,19.88,17.78c0,9.06-4.97,16.21-14.47,17.96l16.39,25.28h-8.54
			l-15.25-24.67h-10.29v24.67h-7.06V665.21z M696.22,695.28c7.15,0,12.55-4.18,12.55-12.2c0-6.45-4.36-11.59-12.99-11.59h-11.86
			v23.8H696.22z"/>
	</g>
	<g>
		<path class="st0" d="M158.73,786.54c0-7.12,5.25-12.54,12.27-12.54c5.39,0,9.61,3.28,11.2,7.84h-3.11
			c-1.28-3.15-4.35-5.22-8.09-5.22c-5.36,0-9.36,4.25-9.36,9.92c0,5.74,4.08,9.92,9.43,9.92c3.73,0,7.43-1.87,8.64-6.71h-7.4v-2.45
			h10.71c-1.11,8.71-6.5,11.78-11.99,11.78C164.02,799.09,158.73,793.73,158.73,786.54z"/>
		<path class="st0" d="M205.35,792.9h-11.82l-2.11,5.74h-2.94l9.02-24.19h3.97l8.92,24.19h-2.94L205.35,792.9z M204.42,790.35
			l-4.87-13.34h-0.21l-4.87,13.34H204.42z"/>
		<path class="st0" d="M217.58,796.26h2.28v-19.42h-2.28v-2.38h10.09c4.6,0,7.33,2.66,7.33,6.19c0,2.38-1.14,4.18-3.08,5.22v0.21
			c1.63,0.55,3.91,2.28,3.91,5.7c0,4.35-3.39,6.88-7.46,6.88h-10.78V796.26z M227.57,784.92c2.73,0,4.56-1.62,4.56-4.08
			c0-2.38-1.87-3.91-4.46-3.91h-5.01v7.98H227.57z M227.88,796.19c2.87,0,5.04-1.38,5.04-4.49c0-3.18-2.56-4.42-5.36-4.42h-4.91
			v8.92H227.88z"/>
		<path class="st0" d="M244.4,796.22h3.59v-19.35h-3.59v-2.42h9.99v2.42h-3.59v19.35h3.59v2.42h-9.99V796.22z"/>
		<path class="st0" d="M264.69,774.45h4.6l10.92,21.63h0.21v-21.63h2.76v24.19h-4.7l-10.78-21.63h-0.21v21.63h-2.8V774.45z"/>
		<path class="st0" d="M293.82,774.45h13.79v2.56h-10.99v8.05h9.47v2.52h-9.47v8.54h11.37v2.52h-14.17V774.45z"/>
		<path class="st0" d="M321.53,777.01h-7.05v-2.56h16.9v2.56h-7.05v21.63h-2.8V777.01z"/>
		<path class="st0" d="M357.85,777.01h-7.05v-2.56h16.9v2.56h-7.05v21.63h-2.8V777.01z"/>
		<path class="st0" d="M375.93,774.45h7.67c4.94,0,7.88,2.83,7.88,7.05c0,3.59-1.97,6.43-5.74,7.12l6.5,10.02h-3.39l-6.05-9.78
			h-4.08v9.78h-2.8V774.45z M383.6,786.37c2.83,0,4.98-1.66,4.98-4.84c0-2.56-1.73-4.6-5.15-4.6h-4.7v9.43H383.6z"/>
		<path class="st0" d="M405.58,787.96l-8.22-13.51h3.14l6.29,10.75H407l6.29-10.75h3.28l-8.23,13.51v10.68h-2.76V787.96z"/>
		<path class="st0" d="M421.34,786.54c0-7.12,5.25-12.54,12.27-12.54c5.39,0,9.61,3.28,11.2,7.84h-3.11
			c-1.28-3.15-4.35-5.22-8.09-5.22c-5.36,0-9.36,4.25-9.36,9.92c0,5.74,4.01,9.92,9.36,9.92c3.73,0,6.88-2.04,8.09-5.22h3.11
			c-1.52,4.67-5.84,7.84-11.23,7.84C426.55,799.09,421.34,793.73,421.34,786.54z"/>
		<path class="st0" d="M453.54,774.45h2.8v10.61h12.86v-10.61h2.8v24.19h-2.8v-11.02h-12.86v11.02h-2.8V774.45z"/>
		<path class="st0" d="M480.91,786.54c0-7.12,5.32-12.54,12.34-12.54c7.05,0,12.34,5.49,12.34,12.54c0,7.12-5.32,12.55-12.37,12.55
			C486.2,799.09,480.91,793.73,480.91,786.54z M502.68,786.54c0-5.67-4.08-9.92-9.43-9.92c-5.36,0-9.43,4.25-9.43,9.92
			c0,5.74,4.08,9.92,9.43,9.92C498.61,796.46,502.68,792.28,502.68,786.54z"/>
		<path class="st0" d="M514.51,774.45h2.8v21.67h10.44v2.52h-13.24V774.45z"/>
		<path class="st0" d="M533.2,786.54c0-7.12,5.32-12.54,12.34-12.54c7.05,0,12.34,5.49,12.34,12.54c0,7.12-5.32,12.55-12.37,12.55
			C538.49,799.09,533.2,793.73,533.2,786.54z M554.97,786.54c0-5.67-4.08-9.92-9.43-9.92c-5.36,0-9.43,4.25-9.43,9.92
			c0,5.74,4.08,9.92,9.43,9.92C550.89,796.46,554.97,792.28,554.97,786.54z"/>
		<path class="st0" d="M565.06,786.54c0-7.12,5.25-12.54,12.27-12.54c5.39,0,9.61,3.28,11.2,7.84h-3.11
			c-1.28-3.15-4.35-5.22-8.09-5.22c-5.36,0-9.36,4.25-9.36,9.92c0,5.74,4.08,9.92,9.43,9.92c3.73,0,7.43-1.87,8.64-6.71h-7.4v-2.45
			h10.71c-1.11,8.71-6.5,11.78-11.99,11.78C570.35,799.09,565.06,793.73,565.06,786.54z"/>
		<path class="st0" d="M597.24,796.22h3.59v-19.35h-3.59v-2.42h9.99v2.42h-3.59v19.35h3.59v2.42h-9.99V796.22z"/>
		<path class="st0" d="M615.1,786.54c0-7.12,5.25-12.54,12.27-12.54c5.39,0,9.61,3.28,11.2,7.84h-3.11
			c-1.28-3.15-4.35-5.22-8.09-5.22c-5.36,0-9.36,4.25-9.36,9.92c0,5.74,4.01,9.92,9.36,9.92c3.73,0,6.88-2.04,8.09-5.22h3.11
			c-1.52,4.67-5.84,7.84-11.23,7.84C620.32,799.09,615.1,793.73,615.1,786.54z"/>
		<path class="st0" d="M645.58,794.84l15.31-17.66v-0.21h-14.86v-2.52h17.42v3.8l-15.31,17.66v0.21h15.38v2.52h-17.94V794.84z"/>
		<path class="st0" d="M672.43,774.45h4.6l10.92,21.63h0.21v-21.63h2.76v24.19h-4.7l-10.78-21.63h-0.21v21.63h-2.8V774.45z"/>
		<path class="st0" d="M707.02,787.96l-8.22-13.51h3.14l6.29,10.75h0.21l6.29-10.75h3.28l-8.23,13.51v10.68h-2.76V787.96z"/>
	</g>
</g>
</svg>
