<?xml version="1.0" encoding="utf-8"?>
<!-- Generator: Adobe Illustrator 25.3.1, SVG Export Plug-In . SVG Version: 6.00 Build 0)  -->
<svg version="1.1" id="Layer_1" xmlns="http://www.w3.org/2000/svg" xmlns:xlink="http://www.w3.org/1999/xlink" x="0px" y="0px"
	 viewBox="0 0 876.42 898.72" style="enable-background:new 0 0 876.42 898.72;" xml:space="preserve">
<style type="text/css">
	.st0{fill:#0F0F0F;}
</style>
<g>
	<g>
		<path class="st0" d="M158.57,665h7.06v26.76h32.43V665h7.06v61.02h-7.06v-27.81h-32.43v27.81h-7.06V665z"/>
		<path class="st0" d="M261.77,711.55h-29.81l-5.32,14.47h-7.41L241.98,665H252l22.49,61.02h-7.41L261.77,711.55z M259.41,705.1
			l-12.29-33.65h-0.52l-12.29,33.65H259.41z"/>
		<path class="st0" d="M287.73,719.91h9.07V671.1h-9.07V665h25.19v6.1h-9.07v48.82h9.07v6.1h-25.19V719.91z"/>
		<path class="st0" d="M333.13,665h19.35c12.47,0,19.88,7.15,19.88,17.78c0,9.06-4.97,16.21-14.47,17.96l16.39,25.28h-8.54
			l-15.25-24.67h-10.29v24.67h-7.06V665z M352.49,695.07c7.15,0,12.55-4.18,12.55-12.2c0-6.45-4.36-11.59-12.99-11.59h-11.86v23.8
			H352.49z"/>
		<path class="st0" d="M454.12,725.45l-4.27-5.75c-4.53,4.36-10.64,6.89-18.04,6.89c-13.25,0-21.18-9.59-21.18-19.61
			c0-8.63,5.23-16.04,15.34-19.61l-10.37-14.04v-8.89h34.35v6.45h-27.9v0.52l27.63,37.14c1.57-3.58,2.35-7.76,2.35-12.2h6.62
			c0,6.8-1.57,13.08-4.62,18.04l8.28,11.07H454.12z M445.92,714.38l-15.87-21.53c-8.98,2.01-12.55,8.37-12.55,13.77
			c0,7.67,6.54,13.69,14.3,13.69C437.82,720.31,442.52,718.04,445.92,714.38z"/>
		<path class="st0" d="M502.14,665h7.06v26.76h32.43V665h7.06v61.02h-7.06v-27.81H509.2v27.81h-7.06V665z"/>
		<path class="st0" d="M605.34,711.55h-29.81l-5.32,14.47h-7.41L585.55,665h10.02l22.49,61.02h-7.41L605.34,711.55z M602.98,705.1
			l-12.29-33.65h-0.52l-12.29,33.65H602.98z"/>
		<path class="st0" d="M631.3,719.91h9.07V671.1h-9.07V665h25.19v6.1h-9.07v48.82h9.07v6.1H631.3V719.91z"/>
		<path class="st0" d="M676.7,665h19.35c12.47,0,19.88,7.15,19.88,17.78c0,9.06-4.97,16.21-14.47,17.96l16.39,25.28h-8.54
			l-15.25-24.67h-10.29v24.67h-7.06V665z M696.06,695.07c7.15,0,12.55-4.18,12.55-12.2c0-6.45-4.36-11.59-12.99-11.59h-11.86v23.8
			H696.06z"/>
	</g>
	<g>
		<path class="st0" d="M158.57,786.33c0-7.12,5.25-12.54,12.27-12.54c5.39,0,9.61,3.28,11.2,7.84h-3.11
			c-1.28-3.15-4.35-5.22-8.09-5.22c-5.36,0-9.36,4.25-9.36,9.92c0,5.74,4.08,9.92,9.43,9.92c3.73,0,7.43-1.87,8.64-6.71h-7.4v-2.45
			h10.71c-1.11,8.71-6.5,11.78-11.99,11.78C163.86,798.88,158.57,793.52,158.57,786.33z"/>
		<path class="st0" d="M205.19,792.69h-11.82l-2.11,5.74h-2.94l9.02-24.19h3.97l8.92,24.19h-2.94L205.19,792.69z M204.25,790.13
			l-4.87-13.34h-0.21l-4.87,13.34H204.25z"/>
		<path class="st0" d="M217.42,796.04h2.28v-19.42h-2.28v-2.38h10.09c4.6,0,7.33,2.66,7.33,6.19c0,2.38-1.14,4.18-3.08,5.22v0.21
			c1.63,0.55,3.91,2.28,3.91,5.7c0,4.35-3.39,6.88-7.46,6.88h-10.78V796.04z M227.41,784.71c2.73,0,4.56-1.62,4.56-4.08
			c0-2.38-1.87-3.91-4.46-3.91h-5.01v7.98H227.41z M227.72,795.97c2.87,0,5.04-1.38,5.04-4.49c0-3.18-2.56-4.42-5.36-4.42h-4.91
			v8.92H227.72z"/>
		<path class="st0" d="M244.24,796.01h3.59v-19.35h-3.59v-2.42h9.99v2.42h-3.59v19.35h3.59v2.42h-9.99V796.01z"/>
		<path class="st0" d="M264.52,774.24h4.6l10.92,21.63h0.21v-21.63h2.76v24.19h-4.7l-10.78-21.63h-0.21v21.63h-2.8V774.24z"/>
		<path class="st0" d="M293.65,774.24h13.79v2.56h-10.99v8.05h9.47v2.52h-9.47v8.54h11.37v2.52h-14.17V774.24z"/>
		<path class="st0" d="M321.37,776.79h-7.05v-2.56h16.9v2.56h-7.05v21.63h-2.8V776.79z"/>
		<path class="st0" d="M357.69,776.79h-7.05v-2.56h16.9v2.56h-7.05v21.63h-2.8V776.79z"/>
		<path class="st0" d="M375.76,774.24h7.67c4.94,0,7.88,2.83,7.88,7.05c0,3.59-1.97,6.43-5.74,7.12l6.5,10.02h-3.39l-6.05-9.78
			h-4.08v9.78h-2.8V774.24z M383.43,786.16c2.83,0,4.98-1.66,4.98-4.84c0-2.56-1.73-4.6-5.15-4.6h-4.7v9.43H383.43z"/>
		<path class="st0" d="M405.41,787.75l-8.22-13.51h3.14l6.29,10.75h0.21l6.29-10.75h3.28l-8.23,13.51v10.68h-2.76V787.75z"/>
		<path class="st0" d="M421.17,786.33c0-7.12,5.25-12.54,12.27-12.54c5.39,0,9.61,3.28,11.2,7.84h-3.11
			c-1.28-3.15-4.35-5.22-8.09-5.22c-5.36,0-9.36,4.25-9.36,9.92c0,5.74,4.01,9.92,9.36,9.92c3.73,0,6.88-2.04,8.09-5.22h3.11
			c-1.52,4.67-5.84,7.84-11.23,7.84C426.39,798.88,421.17,793.52,421.17,786.33z"/>
		<path class="st0" d="M453.38,774.24h2.8v10.61h12.86v-10.61h2.8v24.19h-2.8V787.4h-12.86v11.02h-2.8V774.24z"/>
		<path class="st0" d="M480.75,786.33c0-7.12,5.32-12.54,12.34-12.54c7.05,0,12.34,5.49,12.34,12.54c0,7.12-5.32,12.55-12.37,12.55
			C486.04,798.88,480.75,793.52,480.75,786.33z M502.52,786.33c0-5.67-4.08-9.92-9.43-9.92c-5.36,0-9.43,4.25-9.43,9.92
			c0,5.74,4.08,9.92,9.43,9.92C498.44,796.25,502.52,792.07,502.52,786.33z"/>
		<path class="st0" d="M514.34,774.24h2.8v21.67h10.44v2.52h-13.24V774.24z"/>
		<path class="st0" d="M533.04,786.33c0-7.12,5.32-12.54,12.34-12.54c7.05,0,12.34,5.49,12.34,12.54c0,7.12-5.32,12.55-12.37,12.55
			C538.32,798.88,533.04,793.52,533.04,786.33z M554.81,786.33c0-5.67-4.08-9.92-9.43-9.92c-5.36,0-9.43,4.25-9.43,9.92
			c0,5.74,4.08,9.92,9.43,9.92C550.73,796.25,554.81,792.07,554.81,786.33z"/>
		<path class="st0" d="M564.9,786.33c0-7.12,5.25-12.54,12.27-12.54c5.39,0,9.61,3.28,11.2,7.84h-3.11
			c-1.28-3.15-4.35-5.22-8.09-5.22c-5.36,0-9.36,4.25-9.36,9.92c0,5.74,4.08,9.92,9.43,9.92c3.73,0,7.43-1.87,8.64-6.71h-7.4v-2.45
			h10.71c-1.11,8.71-6.5,11.78-11.99,11.78C570.19,798.88,564.9,793.52,564.9,786.33z"/>
		<path class="st0" d="M597.07,796.01h3.59v-19.35h-3.59v-2.42h9.99v2.42h-3.59v19.35h3.59v2.42h-9.99V796.01z"/>
		<path class="st0" d="M614.94,786.33c0-7.12,5.25-12.54,12.27-12.54c5.39,0,9.61,3.28,11.2,7.84h-3.11
			c-1.28-3.15-4.35-5.22-8.09-5.22c-5.36,0-9.36,4.25-9.36,9.92c0,5.74,4.01,9.92,9.36,9.92c3.73,0,6.88-2.04,8.09-5.22h3.11
			c-1.52,4.67-5.84,7.84-11.23,7.84C620.16,798.88,614.94,793.52,614.94,786.33z"/>
		<path class="st0" d="M645.42,794.63l15.31-17.66v-0.21h-14.86v-2.52h17.42v3.8l-15.31,17.66v0.21h15.38v2.52h-17.94V794.63z"/>
		<path class="st0" d="M672.27,774.24h4.6l10.92,21.63h0.21v-21.63h2.76v24.19h-4.7l-10.78-21.63h-0.21v21.63h-2.8V774.24z"/>
		<path class="st0" d="M706.86,787.75l-8.22-13.51h3.14l6.29,10.75h0.21l6.29-10.75h3.28l-8.23,13.51v10.68h-2.76V787.75z"/>
	</g>
	<path class="st0" d="M572.54,409.32c-50.85-22.34-78.93-34.51-116.64-72.22l0,0l0,0l-4.84-4.84l4.84-4.84h0
		c37.71-37.71,65.79-49.88,116.64-72.22c18.23-8.01,34.67-19.02,48.81-33.15c31.28-31.28,47.28-73.88,49.28-122.2
		c-48.32,2-90.92,18-122.2,49.28c-14.13,14.13-25.14,30.57-33.16,48.81c-22.34,50.85-34.51,78.93-72.22,116.64l0,0l-4.84,4.84
		l-4.84-4.84c-37.71-37.71-49.88-65.79-72.22-116.64c-8.01-18.23-19.02-34.67-33.15-48.81c-31.28-31.28-73.88-47.28-122.2-49.28
		c2,48.32,18,90.92,49.28,122.2c14.13,14.13,30.57,25.14,48.81,33.16c50.85,22.34,78.93,34.51,116.64,72.22l4.84,4.84l-4.84,4.84
		l0,0c-37.71,37.71-65.79,49.88-116.64,72.22c-18.23,8.01-34.68,19.02-48.81,33.16c-31.28,31.28-47.28,73.88-49.28,122.2
		c48.32-2,90.92-18,122.2-49.28c14.13-14.13,25.14-30.57,33.15-48.81c22.34-50.85,34.51-78.93,72.22-116.64v0l4.84-4.84l4.84,4.84
		c37.71,37.71,49.88,65.79,72.22,116.64c8.01,18.23,19.02,34.68,33.16,48.81c31.28,31.28,73.88,47.28,122.2,49.28
		c-2-48.32-18-90.92-49.28-122.2C607.21,428.34,590.77,417.33,572.54,409.32z M523.19,202.82l0.52-1.18
		c7.68-17.47,18.19-32.95,31.23-46c26.44-26.44,62.87-42.21,105.81-45.93c-3.72,42.95-19.49,79.37-45.93,105.81
		c-13.05,13.05-28.52,23.56-45.99,31.23l-1.19,0.52c-30.7,13.49-53.88,23.67-76.23,38.62c36.56-36.82,69.15-71.91,94.83-101.66
		c-29.76,25.68-64.84,58.27-101.66,94.83C499.51,256.71,509.7,233.53,523.19,202.82z M385.01,285.9
		c-22.35-14.94-45.53-25.13-76.24-38.62l-1.18-0.52c-17.47-7.68-32.95-18.19-46-31.23c-26.44-26.44-42.21-62.87-45.93-105.81
		c42.95,3.72,79.37,19.49,105.81,45.93c13.05,13.05,23.56,28.52,31.23,46l0.52,1.19c13.49,30.7,23.67,53.88,38.62,76.23
		c-36.82-36.56-71.91-69.15-101.66-94.83C315.87,213.99,348.45,249.08,385.01,285.9z M353.23,461.69l-0.52,1.19
		c-7.68,17.47-18.18,32.95-31.23,46c-26.44,26.44-62.87,42.21-105.81,45.93c3.72-42.95,19.49-79.37,45.93-105.81
		c13.05-13.05,28.52-23.56,46-31.23l1.18-0.52c30.7-13.49,53.88-23.67,76.24-38.62c-36.56,36.82-69.15,71.91-94.83,101.66
		c29.76-25.68,64.84-58.27,101.66-94.83C376.91,407.81,366.72,430.98,353.23,461.69z M438.21,345.11l-12.85-12.85l12.85-12.85
		l12.85,12.85L438.21,345.11z M554.94,508.87c-13.05-13.05-23.56-28.52-31.23-46l-0.52-1.18c-13.49-30.71-23.67-53.88-38.62-76.24
		c36.82,36.56,71.91,69.15,101.66,94.83c-25.68-29.76-58.27-64.84-94.83-101.66c22.35,14.94,45.53,25.13,76.23,38.62l1.19,0.52
		c17.47,7.68,32.95,18.18,45.99,31.23c26.44,26.44,42.21,62.87,45.93,105.81C617.81,551.09,581.38,535.31,554.94,508.87z"/>
</g>
</svg>
