<svg width="877" height="899" viewBox="0 0 877 899" fill="none" xmlns="http://www.w3.org/2000/svg">
<path d="M158.73 665.21H165.79V691.97H198.22V665.21H205.28V726.23H198.22V698.42H165.79V726.23H158.73V665.21Z" fill="white"/>
<path d="M261.93 711.76H232.12L226.8 726.23H219.39L242.14 665.21H252.16L274.65 726.23H267.24L261.93 711.76ZM259.58 705.31L247.29 671.66H246.77L234.48 705.31H259.58Z" fill="white"/>
<path d="M287.9 720.13H296.97V671.31H287.9V665.21H313.09V671.31H304.02V720.13H313.09V726.23H287.9V720.13Z" fill="white"/>
<path d="M333.3 665.21H352.65C365.12 665.21 372.53 672.36 372.53 682.99C372.53 692.05 367.56 699.2 358.06 700.95L374.45 726.23H365.91L350.66 701.56H340.37V726.23H333.31V665.21H333.3ZM352.65 695.28C359.8 695.28 365.2 691.1 365.2 683.08C365.2 676.63 360.84 671.49 352.21 671.49H340.35V695.29H352.65V695.28Z" fill="white"/>
<path d="M454.28 725.66L450.01 719.91C445.48 724.27 439.37 726.8 431.97 726.8C418.72 726.8 410.79 717.21 410.79 707.19C410.79 698.56 416.02 691.15 426.13 687.58L415.76 673.54V664.65H450.11V671.1H422.21V671.62L449.84 708.76C451.41 705.18 452.19 701 452.19 696.56H458.81C458.81 703.36 457.24 709.64 454.19 714.6L462.47 725.67H454.28V725.66ZM446.09 714.59L430.22 693.06C421.24 695.07 417.67 701.43 417.67 706.83C417.67 714.5 424.21 720.52 431.97 720.52C437.98 720.52 442.69 718.25 446.09 714.59Z" fill="#AA8E5D"/>
<path d="M502.3 665.21H509.36V691.97H541.79V665.21H548.85V726.23H541.79V698.42H509.36V726.23H502.3V665.21Z" fill="white"/>
<path d="M605.5 711.76H575.69L570.37 726.23H562.96L585.71 665.21H595.73L618.22 726.23H610.81L605.5 711.76ZM603.15 705.31L590.86 671.66H590.34L578.05 705.31H603.15Z" fill="white"/>
<path d="M631.47 720.13H640.54V671.31H631.47V665.21H656.66V671.31H647.59V720.13H656.66V726.23H631.47V720.13Z" fill="white"/>
<path d="M676.87 665.21H696.22C708.69 665.21 716.1 672.36 716.1 682.99C716.1 692.05 711.13 699.2 701.63 700.95L718.02 726.23H709.48L694.23 701.56H683.94V726.23H676.88V665.21H676.87ZM696.22 695.28C703.37 695.28 708.77 691.1 708.77 683.08C708.77 676.63 704.41 671.49 695.78 671.49H683.92V695.29H696.22V695.28Z" fill="white"/>
<path d="M158.73 786.54C158.73 779.42 163.98 774 171 774C176.39 774 180.61 777.28 182.2 781.84H179.09C177.81 778.69 174.74 776.62 171 776.62C165.64 776.62 161.64 780.87 161.64 786.54C161.64 792.28 165.72 796.46 171.07 796.46C174.8 796.46 178.5 794.59 179.71 789.75H172.31V787.3H183.02C181.91 796.01 176.52 799.08 171.03 799.08C164.02 799.09 158.73 793.73 158.73 786.54Z" fill="white"/>
<path d="M205.35 792.9H193.53L191.42 798.64H188.48L197.5 774.45H201.47L210.39 798.64H207.45L205.35 792.9ZM204.42 790.35L199.55 777.01H199.34L194.47 790.35H204.42Z" fill="white"/>
<path d="M217.58 796.26H219.86V776.84H217.58V774.46H227.67C232.27 774.46 235 777.12 235 780.65C235 783.03 233.86 784.83 231.92 785.87V786.08C233.55 786.63 235.83 788.36 235.83 791.78C235.83 796.13 232.44 798.66 228.37 798.66H217.59V796.26H217.58ZM227.57 784.92C230.3 784.92 232.13 783.3 232.13 780.84C232.13 778.46 230.26 776.93 227.67 776.93H222.66V784.91H227.57V784.92ZM227.88 796.19C230.75 796.19 232.92 794.81 232.92 791.7C232.92 788.52 230.36 787.28 227.56 787.28H222.65V796.2H227.88V796.19Z" fill="white"/>
<path d="M244.4 796.22H247.99V776.87H244.4V774.45H254.39V776.87H250.8V796.22H254.39V798.64H244.4V796.22Z" fill="white"/>
<path d="M264.69 774.45H269.29L280.21 796.08H280.42V774.45H283.18V798.64H278.48L267.7 777.01H267.49V798.64H264.69V774.45Z" fill="white"/>
<path d="M293.82 774.45H307.61V777.01H296.62V785.06H306.09V787.58H296.62V796.12H307.99V798.64H293.82V774.45Z" fill="white"/>
<path d="M321.53 777.01H314.48V774.45H331.38V777.01H324.33V798.64H321.53V777.01Z" fill="white"/>
<path d="M357.85 777.01H350.8V774.45H367.7V777.01H360.65V798.64H357.85V777.01Z" fill="white"/>
<path d="M375.93 774.45H383.6C388.54 774.45 391.48 777.28 391.48 781.5C391.48 785.09 389.51 787.93 385.74 788.62L392.24 798.64H388.85L382.8 788.86H378.72V798.64H375.92V774.45H375.93ZM383.6 786.37C386.43 786.37 388.58 784.71 388.58 781.53C388.58 778.97 386.85 776.93 383.43 776.93H378.73V786.36H383.6V786.37Z" fill="white"/>
<path d="M405.58 787.96L397.36 774.45H400.5L406.79 785.2H407L413.29 774.45H416.57L408.34 787.96V798.64H405.58V787.96Z" fill="white"/>
<path d="M421.34 786.54C421.34 779.42 426.59 774 433.61 774C439 774 443.22 777.28 444.81 781.84H441.7C440.42 778.69 437.35 776.62 433.61 776.62C428.25 776.62 424.25 780.87 424.25 786.54C424.25 792.28 428.26 796.46 433.61 796.46C437.34 796.46 440.49 794.42 441.7 791.24H444.81C443.29 795.91 438.97 799.08 433.58 799.08C426.55 799.09 421.34 793.73 421.34 786.54Z" fill="white"/>
<path d="M453.54 774.45H456.34V785.06H469.2V774.45H472V798.64H469.2V787.62H456.34V798.64H453.54V774.45Z" fill="white"/>
<path d="M480.91 786.54C480.91 779.42 486.23 774 493.25 774C500.3 774 505.59 779.49 505.59 786.54C505.59 793.66 500.27 799.09 493.22 799.09C486.2 799.09 480.91 793.73 480.91 786.54ZM502.68 786.54C502.68 780.87 498.6 776.62 493.25 776.62C487.89 776.62 483.82 780.87 483.82 786.54C483.82 792.28 487.9 796.46 493.25 796.46C498.61 796.46 502.68 792.28 502.68 786.54Z" fill="white"/>
<path d="M514.51 774.45H517.31V796.12H527.75V798.64H514.51V774.45Z" fill="white"/>
<path d="M533.2 786.54C533.2 779.42 538.52 774 545.54 774C552.59 774 557.88 779.49 557.88 786.54C557.88 793.66 552.56 799.09 545.51 799.09C538.49 799.09 533.2 793.73 533.2 786.54ZM554.97 786.54C554.97 780.87 550.89 776.62 545.54 776.62C540.18 776.62 536.11 780.87 536.11 786.54C536.11 792.28 540.19 796.46 545.54 796.46C550.89 796.46 554.97 792.28 554.97 786.54Z" fill="white"/>
<path d="M565.06 786.54C565.06 779.42 570.31 774 577.33 774C582.72 774 586.94 777.28 588.53 781.84H585.42C584.14 778.69 581.07 776.62 577.33 776.62C571.97 776.62 567.97 780.87 567.97 786.54C567.97 792.28 572.05 796.46 577.4 796.46C581.13 796.46 584.83 794.59 586.04 789.75H578.64V787.3H589.35C588.24 796.01 582.85 799.08 577.36 799.08C570.35 799.09 565.06 793.73 565.06 786.54Z" fill="white"/>
<path d="M597.24 796.22H600.83V776.87H597.24V774.45H607.23V776.87H603.64V796.22H607.23V798.64H597.24V796.22Z" fill="white"/>
<path d="M615.1 786.54C615.1 779.42 620.35 774 627.37 774C632.76 774 636.98 777.28 638.57 781.84H635.46C634.18 778.69 631.11 776.62 627.37 776.62C622.01 776.62 618.01 780.87 618.01 786.54C618.01 792.28 622.02 796.46 627.37 796.46C631.1 796.46 634.25 794.42 635.46 791.24H638.57C637.05 795.91 632.73 799.08 627.34 799.08C620.32 799.09 615.1 793.73 615.1 786.54Z" fill="white"/>
<path d="M645.58 794.84L660.89 777.18V776.97H646.03V774.45H663.45V778.25L648.14 795.91V796.12H663.52V798.64H645.58V794.84Z" fill="white"/>
<path d="M672.43 774.45H677.03L687.95 796.08H688.16V774.45H690.92V798.64H686.22L675.44 777.01H675.23V798.64H672.43V774.45Z" fill="white"/>
<path d="M707.02 787.96L698.8 774.45H701.94L708.23 785.2H708.44L714.73 774.45H718.01L709.78 787.96V798.64H707.02V787.96Z" fill="white"/>
<path d="M572.7 409.53C521.85 387.19 493.77 375.02 456.06 337.31L451.22 332.47L456.06 327.63C493.77 289.92 521.85 277.75 572.7 255.41C590.93 247.4 607.37 236.39 621.51 222.26C652.79 190.98 668.79 148.38 670.79 100.06C622.47 102.06 579.87 118.06 548.59 149.34C534.46 163.47 523.45 179.91 515.43 198.15C493.09 249 480.92 277.08 443.21 314.79L438.37 319.63L433.53 314.79C395.82 277.08 383.65 249 361.31 198.15C353.3 179.92 342.29 163.48 328.16 149.34C296.88 118.06 254.28 102.06 205.96 100.06C207.96 148.38 223.96 190.98 255.24 222.26C269.37 236.39 285.81 247.4 304.05 255.42C354.9 277.76 382.98 289.93 420.69 327.64L425.53 332.48L420.69 337.32C382.98 375.03 354.9 387.2 304.05 409.54C285.82 417.55 269.37 428.56 255.24 442.7C223.96 473.98 207.96 516.58 205.96 564.9C254.28 562.9 296.88 546.9 328.16 515.62C342.29 501.49 353.3 485.05 361.31 466.81C383.65 415.96 395.82 387.88 433.53 350.17L438.37 345.33L443.21 350.17C480.92 387.88 493.09 415.96 515.43 466.81C523.44 485.04 534.45 501.49 548.59 515.62C579.87 546.9 622.47 562.9 670.79 564.9C668.79 516.58 652.79 473.98 621.51 442.7C607.37 428.55 590.93 417.54 572.7 409.53ZM523.35 203.04L523.87 201.86C531.55 184.39 542.06 168.91 555.1 155.86C581.54 129.42 617.97 113.65 660.91 109.93C657.19 152.88 641.42 189.3 614.98 215.74C601.93 228.79 586.46 239.3 568.99 246.97L567.8 247.49C537.1 260.98 513.92 271.16 491.57 286.11C528.13 249.29 560.72 214.2 586.4 184.45C556.64 210.13 521.56 242.72 484.74 279.28C499.68 256.92 509.86 233.74 523.35 203.04ZM385.18 286.11C362.83 271.17 339.65 260.98 308.94 247.49L307.76 246.97C290.29 239.29 274.81 228.78 261.76 215.74C235.32 189.3 219.55 152.87 215.83 109.93C258.78 113.65 295.2 129.42 321.64 155.86C334.69 168.91 345.2 184.38 352.87 201.86L353.39 203.05C366.88 233.75 377.06 256.93 392.01 279.28C355.19 242.72 320.1 210.13 290.35 184.45C316.03 214.2 348.62 249.29 385.18 286.11ZM353.4 461.9L352.88 463.09C345.2 480.56 334.7 496.04 321.65 509.09C295.21 535.53 258.78 551.3 215.84 555.02C219.56 512.07 235.33 475.65 261.77 449.21C274.82 436.16 290.29 425.65 307.77 417.98L308.95 417.46C339.65 403.97 362.83 393.79 385.19 378.84C348.63 415.66 316.04 450.75 290.36 480.5C320.12 454.82 355.2 422.23 392.02 385.67C377.07 408.02 366.89 431.2 353.4 461.9ZM438.37 345.32L425.52 332.47L438.37 319.62L451.22 332.47L438.37 345.32ZM555.11 509.08C542.06 496.03 531.55 480.56 523.88 463.08L523.36 461.9C509.87 431.19 499.69 408.02 484.74 385.66C521.56 422.22 556.65 454.81 586.4 480.49C560.72 450.73 528.13 415.65 491.57 378.83C513.92 393.77 537.1 403.96 567.8 417.45L568.99 417.97C586.46 425.65 601.94 436.15 614.98 449.2C641.42 475.64 657.19 512.07 660.91 555.01C617.97 551.3 581.55 535.52 555.11 509.08Z" fill="#AA8E5D"/>
</svg>
