<svg width="466" height="465" viewBox="0 0 466 465" fill="none" xmlns="http://www.w3.org/2000/svg">
<path d="M367.7 309.53C316.85 287.19 288.77 275.02 251.06 237.31L246.22 232.47L251.06 227.63C288.77 189.92 316.85 177.75 367.7 155.41C385.93 147.4 402.37 136.39 416.51 122.26C447.79 90.98 463.79 48.38 465.79 0.0599976C417.47 2.06 374.87 18.06 343.59 49.34C329.46 63.47 318.45 79.91 310.43 98.15C288.09 149 275.92 177.08 238.21 214.79L233.37 219.63L228.53 214.79C190.82 177.08 178.65 149 156.31 98.15C148.3 79.92 137.29 63.48 123.16 49.34C91.88 18.06 49.28 2.06 0.960007 0.0599976C2.96001 48.38 18.96 90.98 50.24 122.26C64.37 136.39 80.81 147.4 99.05 155.42C149.9 177.76 177.98 189.93 215.69 227.64L220.53 232.48L215.69 237.32C177.98 275.03 149.9 287.2 99.05 309.54C80.82 317.55 64.37 328.56 50.24 342.7C18.96 373.98 2.96001 416.58 0.960007 464.9C49.28 462.9 91.88 446.9 123.16 415.62C137.29 401.49 148.3 385.05 156.31 366.81C178.65 315.96 190.82 287.88 228.53 250.17L233.37 245.33L238.21 250.17C275.92 287.88 288.09 315.96 310.43 366.81C318.44 385.04 329.45 401.49 343.59 415.62C374.87 446.9 417.47 462.9 465.79 464.9C463.79 416.58 447.79 373.98 416.51 342.7C402.37 328.55 385.93 317.54 367.7 309.53ZM318.35 103.04L318.87 101.86C326.55 84.39 337.06 68.91 350.1 55.86C376.54 29.42 412.97 13.65 455.91 9.93C452.19 52.88 436.42 89.3 409.98 115.74C396.93 128.79 381.46 139.3 363.99 146.97L362.8 147.49C332.1 160.98 308.92 171.16 286.57 186.11C323.13 149.29 355.72 114.2 381.4 84.45C351.64 110.13 316.56 142.72 279.74 179.28C294.68 156.92 304.86 133.74 318.35 103.04ZM180.18 186.11C157.83 171.17 134.65 160.98 103.94 147.49L102.76 146.97C85.29 139.29 69.81 128.78 56.76 115.74C30.32 89.3 14.55 52.87 10.83 9.93C53.78 13.65 90.2 29.42 116.64 55.86C129.69 68.91 140.2 84.38 147.87 101.86L148.39 103.05C161.88 133.75 172.06 156.93 187.01 179.28C150.19 142.72 115.1 110.13 85.35 84.45C111.03 114.2 143.62 149.29 180.18 186.11ZM148.4 361.9L147.88 363.09C140.2 380.56 129.7 396.04 116.65 409.09C90.21 435.53 53.78 451.3 10.84 455.02C14.56 412.07 30.33 375.65 56.77 349.21C69.82 336.16 85.29 325.65 102.77 317.98L103.95 317.46C134.65 303.97 157.83 293.79 180.19 278.84C143.63 315.66 111.04 350.75 85.36 380.5C115.12 354.82 150.2 322.23 187.02 285.67C172.07 308.02 161.89 331.2 148.4 361.9ZM233.37 245.32L220.52 232.47L233.37 219.62L246.22 232.47L233.37 245.32ZM350.11 409.08C337.06 396.03 326.55 380.56 318.88 363.08L318.36 361.9C304.87 331.19 294.69 308.02 279.74 285.66C316.56 322.22 351.65 354.81 381.4 380.49C355.72 350.73 323.13 315.65 286.57 278.83C308.92 293.77 332.1 303.96 362.8 317.45L363.99 317.97C381.46 325.65 396.94 336.15 409.98 349.2C436.42 375.64 452.19 412.07 455.91 455.01C412.97 451.3 376.55 435.52 350.11 409.08Z" fill="#AA8E5D"/>
</svg>
