<svg width="1000" height="396" viewBox="0 0 1000 396" fill="none" xmlns="http://www.w3.org/2000/svg">
<path d="M416 254.89C416 247.77 421.25 242.35 428.27 242.35C433.66 242.35 437.88 245.63 439.47 250.19H436.36C435.08 247.04 432.01 244.97 428.27 244.97C422.91 244.97 418.91 249.22 418.91 254.89C418.91 260.63 422.99 264.81 428.34 264.81C432.07 264.81 435.77 262.94 436.98 258.1H429.58V255.65H440.29C439.18 264.36 433.79 267.43 428.3 267.43C421.29 267.44 416 262.08 416 254.89Z" fill="#0F0F0F"/>
<path d="M462.62 261.25H450.8L448.69 266.99H445.75L454.77 242.8H458.74L467.66 266.99H464.72L462.62 261.25ZM461.69 258.7L456.82 245.36H456.61L451.74 258.7H461.69Z" fill="#0F0F0F"/>
<path d="M474.85 264.61H477.13V245.19H474.85V242.81H484.94C489.54 242.81 492.27 245.47 492.27 249C492.27 251.38 491.13 253.18 489.19 254.22V254.43C490.82 254.98 493.1 256.71 493.1 260.13C493.1 264.48 489.71 267.01 485.64 267.01H474.86V264.61H474.85ZM484.84 253.27C487.57 253.27 489.4 251.65 489.4 249.19C489.4 246.81 487.53 245.28 484.94 245.28H479.93V253.26H484.84V253.27ZM485.15 264.54C488.02 264.54 490.19 263.16 490.19 260.05C490.19 256.87 487.63 255.63 484.83 255.63H479.92V264.55H485.15V264.54Z" fill="#0F0F0F"/>
<path d="M501.67 264.57H505.26V245.22H501.67V242.8H511.66V245.22H508.07V264.57H511.66V266.99H501.67V264.57Z" fill="#0F0F0F"/>
<path d="M521.96 242.8H526.56L537.48 264.43H537.69V242.8H540.45V266.99H535.75L524.97 245.36H524.76V266.99H521.96V242.8Z" fill="#0F0F0F"/>
<path d="M551.09 242.8H564.88V245.36H553.89V253.41H563.36V255.93H553.89V264.47H565.26V266.99H551.09V242.8Z" fill="#0F0F0F"/>
<path d="M578.8 245.36H571.75V242.8H588.65V245.36H581.6V266.99H578.8V245.36Z" fill="#0F0F0F"/>
<path d="M615.12 245.36H608.07V242.8H624.97V245.36H617.92V266.99H615.12V245.36Z" fill="#0F0F0F"/>
<path d="M633.2 242.8H640.87C645.81 242.8 648.75 245.63 648.75 249.85C648.75 253.44 646.78 256.28 643.01 256.97L649.51 266.99H646.12L640.07 257.21H635.99V266.99H633.19V242.8H633.2ZM640.87 254.72C643.7 254.72 645.85 253.06 645.85 249.88C645.85 247.32 644.12 245.28 640.7 245.28H636V254.71H640.87V254.72Z" fill="#0F0F0F"/>
<path d="M662.85 256.31L654.63 242.8H657.77L664.06 253.55H664.27L670.56 242.8H673.84L665.61 256.31V266.99H662.85V256.31Z" fill="#0F0F0F"/>
<path d="M678.61 254.89C678.61 247.77 683.86 242.35 690.88 242.35C696.27 242.35 700.49 245.63 702.08 250.19H698.97C697.69 247.04 694.62 244.97 690.88 244.97C685.52 244.97 681.52 249.22 681.52 254.89C681.52 260.63 685.53 264.81 690.88 264.81C694.61 264.81 697.76 262.77 698.97 259.59H702.08C700.56 264.26 696.24 267.43 690.85 267.43C683.82 267.44 678.61 262.08 678.61 254.89Z" fill="#0F0F0F"/>
<path d="M710.81 242.8H713.61V253.41H726.47V242.8H729.27V266.99H726.47V255.97H713.61V266.99H710.81V242.8Z" fill="#0F0F0F"/>
<path d="M738.18 254.89C738.18 247.77 743.5 242.35 750.52 242.35C757.57 242.35 762.86 247.84 762.86 254.89C762.86 262.01 757.54 267.44 750.49 267.44C743.47 267.44 738.18 262.08 738.18 254.89ZM759.95 254.89C759.95 249.22 755.87 244.97 750.52 244.97C745.16 244.97 741.09 249.22 741.09 254.89C741.09 260.63 745.17 264.81 750.52 264.81C755.88 264.81 759.95 260.63 759.95 254.89Z" fill="#0F0F0F"/>
<path d="M771.78 242.8H774.58V264.47H785.02V266.99H771.78V242.8Z" fill="#0F0F0F"/>
<path d="M790.47 254.89C790.47 247.77 795.79 242.35 802.81 242.35C809.86 242.35 815.15 247.84 815.15 254.89C815.15 262.01 809.83 267.44 802.78 267.44C795.76 267.44 790.47 262.08 790.47 254.89ZM812.24 254.89C812.24 249.22 808.16 244.97 802.81 244.97C797.45 244.97 793.38 249.22 793.38 254.89C793.38 260.63 797.46 264.81 802.81 264.81C808.16 264.81 812.24 260.63 812.24 254.89Z" fill="#0F0F0F"/>
<path d="M822.33 254.89C822.33 247.77 827.58 242.35 834.6 242.35C839.99 242.35 844.21 245.63 845.8 250.19H842.69C841.41 247.04 838.34 244.97 834.6 244.97C829.24 244.97 825.24 249.22 825.24 254.89C825.24 260.63 829.32 264.81 834.67 264.81C838.4 264.81 842.1 262.94 843.31 258.1H835.91V255.65H846.62C845.51 264.36 840.12 267.43 834.63 267.43C827.62 267.44 822.33 262.08 822.33 254.89Z" fill="#0F0F0F"/>
<path d="M854.51 264.57H858.1V245.22H854.51V242.8H864.5V245.22H860.91V264.57H864.5V266.99H854.51V264.57Z" fill="#0F0F0F"/>
<path d="M872.37 254.89C872.37 247.77 877.62 242.35 884.64 242.35C890.03 242.35 894.25 245.63 895.84 250.19H892.73C891.45 247.04 888.38 244.97 884.64 244.97C879.28 244.97 875.28 249.22 875.28 254.89C875.28 260.63 879.29 264.81 884.64 264.81C888.37 264.81 891.52 262.77 892.73 259.59H895.84C894.32 264.26 890 267.43 884.61 267.43C877.59 267.44 872.37 262.08 872.37 254.89Z" fill="#0F0F0F"/>
<path d="M902.85 263.19L918.16 245.53V245.32H903.3V242.8H920.72V246.6L905.41 264.26V264.47H920.79V266.99H902.85V263.19Z" fill="#0F0F0F"/>
<path d="M929.7 242.8H934.3L945.22 264.43H945.43V242.8H948.19V266.99H943.49L932.71 245.36H932.5V266.99H929.7V242.8Z" fill="#0F0F0F"/>
<path d="M964.29 256.31L956.07 242.8H959.21L965.5 253.55H965.71L972 242.8H975.28L967.05 256.31V266.99H964.29V256.31Z" fill="#0F0F0F"/>
<path d="M416 133.56H423.06V160.32H455.49V133.56H462.55V194.58H455.49V166.77H423.06V194.58H416V133.56Z" fill="#0F0F0F"/>
<path d="M519.2 180.11H489.39L484.07 194.58H476.66L499.41 133.56H509.43L531.92 194.58H524.51L519.2 180.11ZM516.85 173.66L504.56 140.01H504.04L491.75 173.66H516.85Z" fill="#0F0F0F"/>
<path d="M545.17 188.48H554.24V139.66H545.17V133.56H570.36V139.66H561.29V188.48H570.36V194.58H545.17V188.48Z" fill="#0F0F0F"/>
<path d="M590.57 133.56H609.92C622.39 133.56 629.8 140.71 629.8 151.34C629.8 160.4 624.83 167.55 615.33 169.3L631.72 194.58H623.18L607.93 169.91H597.64V194.58H590.58V133.56H590.57ZM609.92 163.63C617.07 163.63 622.47 159.45 622.47 151.43C622.47 144.98 618.11 139.84 609.48 139.84H597.62V163.64H609.92V163.63Z" fill="#0F0F0F"/>
<path d="M711.55 194.01L707.28 188.26C702.75 192.62 696.64 195.15 689.24 195.15C675.99 195.15 668.06 185.56 668.06 175.54C668.06 166.91 673.29 159.5 683.4 155.93L673.03 141.89V133H707.38V139.45H679.48V139.97L707.11 177.11C708.68 173.53 709.46 169.35 709.46 164.91H716.08C716.08 171.71 714.51 177.99 711.46 182.95L719.74 194.02H711.55V194.01ZM703.36 182.94L687.49 161.41C678.51 163.42 674.94 169.78 674.94 175.18C674.94 182.85 681.48 188.87 689.24 188.87C695.25 188.87 699.96 186.6 703.36 182.94Z" fill="#AA8E5D"/>
<path d="M759.57 133.56H766.63V160.32H799.06V133.56H806.12V194.58H799.06V166.77H766.63V194.58H759.57V133.56Z" fill="#0F0F0F"/>
<path d="M862.77 180.11H832.96L827.64 194.58H820.23L842.98 133.56H853L875.49 194.58H868.08L862.77 180.11ZM860.42 173.66L848.13 140.01H847.61L835.32 173.66H860.42Z" fill="#0F0F0F"/>
<path d="M888.74 188.48H897.81V139.66H888.74V133.56H913.93V139.66H904.86V188.48H913.93V194.58H888.74V188.48Z" fill="#0F0F0F"/>
<path d="M934.14 133.56H953.49C965.96 133.56 973.37 140.71 973.37 151.34C973.37 160.4 968.4 167.55 958.9 169.3L975.29 194.58H966.75L951.5 169.91H941.21V194.58H934.15V133.56H934.14ZM953.49 163.63C960.64 163.63 966.04 159.45 966.04 151.43C966.04 144.98 961.68 139.84 953.05 139.84H941.19V163.64H953.49V163.63Z" fill="#0F0F0F"/>
<path d="M292.792 255.38C255.933 239.187 235.58 230.365 208.245 203.031L204.737 199.523L208.245 196.014C235.58 168.68 255.933 159.859 292.792 143.666C306.006 137.86 317.923 129.879 328.172 119.637C350.845 96.9635 362.443 66.0848 363.893 31.06C328.868 32.5097 297.989 44.1073 275.316 66.7807C265.074 77.0228 257.093 88.9394 251.28 102.161C235.087 139.019 226.265 159.373 198.931 186.707L195.423 190.216L191.914 186.707C164.58 159.373 155.759 139.019 139.566 102.161C133.76 88.9466 125.779 77.0301 115.537 66.7807C92.8635 44.1073 61.9848 32.5097 26.96 31.06C28.4097 66.0848 40.0073 96.9635 62.6807 119.637C72.9228 129.879 84.8394 137.86 98.0607 143.673C134.919 159.866 155.273 168.688 182.607 196.022L186.116 199.53L182.607 203.038C155.273 230.372 134.919 239.194 98.0607 255.387C84.8466 261.193 72.9228 269.174 62.6807 279.423C40.0073 302.096 28.4097 332.975 26.96 368C61.9848 366.55 92.8635 354.953 115.537 332.279C125.779 322.037 133.76 310.121 139.566 296.899C155.759 260.041 164.58 239.687 191.914 212.353L195.423 208.844L198.931 212.353C226.265 239.687 235.087 260.041 251.28 296.899C257.086 310.113 265.066 322.037 275.316 332.279C297.989 354.953 328.868 366.55 363.893 368C362.443 332.975 350.845 302.096 328.172 279.423C317.923 269.166 306.006 261.186 292.792 255.38ZM257.021 105.705L257.398 104.85C262.964 92.1867 270.583 80.966 280.035 71.5067C299.2 52.3416 325.606 40.9107 356.731 38.2143C354.035 69.3467 342.604 95.7458 323.439 114.911C313.979 124.37 302.766 131.988 290.103 137.548L289.24 137.925C266.987 147.703 250.185 155.082 233.985 165.919C260.485 139.23 284.108 113.795 302.723 92.2302C281.151 110.844 255.723 134.467 229.034 160.968C239.863 144.76 247.242 127.958 257.021 105.705ZM156.868 165.919C140.667 155.089 123.865 147.703 101.605 137.925L100.75 137.548C88.0867 131.981 76.866 124.363 67.4067 114.911C48.2417 95.7458 36.8107 69.3394 34.1143 38.2143C65.2467 40.9107 91.6458 52.3416 110.811 71.5067C120.27 80.966 127.888 92.1795 133.448 104.85L133.825 105.712C143.603 127.965 150.982 144.767 161.819 160.968C135.13 134.467 109.695 110.844 88.1302 92.2302C106.744 113.795 130.367 139.23 156.868 165.919ZM133.832 293.34L133.455 294.203C127.888 306.866 120.277 318.087 110.818 327.546C91.653 346.711 65.2467 358.142 34.1215 360.838C36.818 329.706 48.2489 303.307 67.414 284.142C76.8733 274.683 88.0867 267.064 100.757 261.505L101.612 261.128C123.865 251.35 140.667 243.971 156.875 233.134C130.375 259.823 106.752 285.258 88.1375 306.823C109.709 288.208 135.137 264.585 161.826 238.085C150.989 254.285 143.61 271.087 133.832 293.34ZM195.423 208.837L186.108 199.523L195.423 190.208L204.737 199.523L195.423 208.837ZM280.042 327.539C270.583 318.079 262.964 306.866 257.405 294.196L257.028 293.34C247.25 271.08 239.871 254.285 229.034 238.078C255.723 264.578 281.158 288.201 302.723 306.815C284.108 285.244 260.485 259.816 233.985 233.127C250.185 243.956 266.987 251.342 289.24 261.121L290.103 261.498C302.766 267.064 313.987 274.675 323.439 284.135C342.604 303.3 354.035 329.706 356.731 360.831C325.606 358.142 299.207 346.704 280.042 327.539Z" fill="#AA8E5D"/>
</svg>
